# xmcd
# 
# Track frame offsets:
#     183
#     14708
#     30533
#     48020
#     70308
#     85120
#     103045
#     118983
#     136970
#     153458
#     167433
#     184395
# 
# Disc length: 2612
# 
# Revision: 1
# Processed by: cddbd v1.5.2PL0 Copyright (c) Steve Scherf et al.
# Submitted via: Kool Media Converter v2.8.0
# 
DISCID=9e0a320c
DTITLE=Demis Roussos - The art of Demis Roussos and Aphrodite's Child
DYEAR=0
DGENRE=
TTITLE0=Rain and tears
TTITLE1=It's five o'clock
TTITLE2=I want to live
TTITLE3=Spring summer winter and fall
TTITLE4=End of the world
TTITLE5=Goodbye my love goodbye
TTITLE6=We shall dance
TTITLE7=My reason
TTITLE8=Forever and ever
TTITLE9=Someday somewhare
TTITLE10=My only fascination
TTITLE11=From souvenirs to souvenirs
EXTD=
EXTT0=
EXTT1=
EXTT2=
EXTT3=
EXTT4=
EXTT5=
EXTT6=
EXTT7=
EXTT8=
EXTT9=
EXTT10=
EXTT11=
PLAYORDER=
